<svg version="1.1" viewBox="0.0 0.0 768.0 768.0" fill="none" stroke="none" stroke-linecap="square" stroke-miterlimit="10" xmlns:xlink="http://www.w3.org/1999/xlink" xmlns="http://www.w3.org/2000/svg"><clipPath id="ged0a15f20d_0_0.0"><path d="m0 0l768.0 0l0 768.0l-768.0 0l0 -768.0z" clip-rule="nonzero"/></clipPath><g clip-path="url(#ged0a15f20d_0_0.0)"><path fill="#ffffff" d="m0 0l768.0 0l0 768.0l-768.0 0z" fill-rule="evenodd"/><path fill="#6f6f6f" d="m47.02362 224.85199l0 0c0 -43.948837 35.627563 -79.5764 79.57639 -79.5764l514.7999 0c21.10498 0 41.34558 8.383926 56.269043 23.307388c14.923462 14.923462 23.307373 35.164032 23.307373 56.269012l0 318.29602c0 43.948853 -35.627563 79.576416 -79.576416 79.576416l-514.7999 0c-43.94883 0 -79.57639 -35.627563 -79.57639 -79.576416z" fill-rule="evenodd"/><path stroke="#595959" stroke-width="1.0" stroke-linejoin="round" stroke-linecap="butt" d="m47.02362 224.85199l0 0c0 -43.948837 35.627563 -79.5764 79.57639 -79.5764l514.7999 0c21.10498 0 41.34558 8.383926 56.269043 23.307388c14.923462 14.923462 23.307373 35.164032 23.307373 56.269012l0 318.29602c0 43.948853 -35.627563 79.576416 -79.576416 79.576416l-514.7999 0c-43.94883 0 -79.57639 -35.627563 -79.57639 -79.576416z" fill-rule="evenodd"/><path fill="#000000" fill-opacity="0.0" d="m31.351706 140.00905l346.04724 346.04724" fill-rule="evenodd"/><path stroke="#ffffff" stroke-width="24.0" stroke-linejoin="round" stroke-linecap="butt" d="m31.351706 140.00905l346.04724 346.04724" fill-rule="evenodd"/><path fill="#000000" fill-opacity="0.0" d="m45.205433 132.01312l346.04724 346.04724" fill-rule="evenodd"/><path stroke="#ffffff" stroke-width="24.0" stroke-linejoin="round" stroke-linecap="butt" d="m45.205433 132.01312l346.04724 346.04724" fill-rule="evenodd"/><path fill="#000000" fill-opacity="0.0" d="m717.7951 133.06036l-346.45673 346.4567" fill-rule="evenodd"/><path stroke="#ffffff" stroke-width="24.0" stroke-linejoin="round" stroke-linecap="butt" d="m717.7951 133.06036l-346.45673 346.4567" fill-rule="evenodd"/><path fill="#000000" fill-opacity="0.0" d="m725.80054 146.93059l-352.28345 352.28345" fill-rule="evenodd"/><path stroke="#ffffff" stroke-width="24.0" stroke-linejoin="round" stroke-linecap="butt" d="m725.80054 146.93059l-352.28345 352.28345" fill-rule="evenodd"/><path fill="#000000" fill-opacity="0.0" d="m-54.05643 730.8228l339.40158 -339.40155" fill-rule="evenodd"/><path stroke="#ffffff" stroke-width="24.0" stroke-linejoin="round" stroke-linecap="butt" d="m-54.05643 730.8228l339.40158 -339.40155" fill-rule="evenodd"/><path fill="#000000" fill-opacity="0.0" d="m-61.89895 717.2349l339.40158 -339.40158" fill-rule="evenodd"/><path stroke="#ffffff" stroke-width="24.0" stroke-linejoin="round" stroke-linecap="butt" d="m-61.89895 717.2349l339.40158 -339.40158" fill-rule="evenodd"/><path fill="#000000" fill-opacity="0.0" d="m474.4777 381.75592l339.40158 339.40155" fill-rule="evenodd"/><path stroke="#ffffff" stroke-width="24.0" stroke-linejoin="round" stroke-linecap="butt" d="m474.4777 381.75592l339.40158 339.40155" fill-rule="evenodd"/><path fill="#000000" fill-opacity="0.0" d="m488.0656 373.9134l339.40155 339.40155" fill-rule="evenodd"/><path stroke="#ffffff" stroke-width="24.0" stroke-linejoin="round" stroke-linecap="butt" d="m488.0656 373.9134l339.40155 339.40155" fill-rule="evenodd"/></g></svg>